<svg id="svg" version="1.1" xmlns="http://www.w3.org/2000/svg" xmlns:xlink="http://www.w3.org/1999/xlink" width="400" height="398.78419452887545" viewBox="0, 0, 400,398.78419452887545"><g id="svgg"><path id="path0" d="M90.077 158.004 C 83.758 175.205,81.635 195.195,84.219 213.171 C 84.275 213.561,84.334 214.080,84.349 214.323 C 84.364 214.567,84.452 214.720,84.543 214.663 C 84.678 214.580,96.935 220.899,105.704 225.572 L 107.559 226.560 106.972 224.577 C 101.609 206.439,101.847 186.364,107.638 168.420 C 108.189 166.710,108.612 165.283,108.576 165.248 C 108.540 165.213,104.590 163.126,99.797 160.610 C 93.567 157.340,91.101 155.949,91.144 155.729 C 91.309 154.872,90.932 155.676,90.077 158.004 M126.445 177.549 C 121.776 195.085,123.318 213.405,130.800 229.302 C 132.570 233.062,136.625 239.912,137.519 240.651 C 137.669 240.774,137.791 240.941,137.791 241.022 C 137.791 241.217,139.243 243.016,139.569 243.224 C 139.710 243.315,139.765 243.488,139.689 243.610 C 139.608 243.741,139.646 243.774,139.782 243.690 C 139.908 243.612,151.963 249.813,166.571 257.470 C 182.321 265.725,193.032 271.453,192.888 271.542 C 192.236 271.945,203.139 271.877,206.687 271.456 C 222.600 269.566,236.859 263.009,248.677 252.148 C 252.217 248.895,257.177 243.300,256.814 242.970 C 256.611 242.785,240.776 234.480,239.886 234.090 C 239.394 233.875,239.282 233.882,239.187 234.131 C 238.795 235.152,233.381 239.890,230.193 242.001 C 220.739 248.261,205.836 250.830,198.357 247.489 C 190.417 243.942,194.615 232.893,203.269 234.560 C 210.698 235.991,220.503 233.200,225.464 228.244 C 225.928 227.780,226.427 227.361,226.573 227.312 C 226.719 227.264,225.519 226.530,223.906 225.682 C 206.991 216.790,206.788 216.688,206.447 216.895 C 206.259 217.009,206.141 217.160,206.185 217.231 C 206.228 217.301,206.154 217.360,206.019 217.361 C 205.885 217.361,205.237 217.708,204.579 218.130 C 179.724 234.076,148.157 217.807,148.122 189.032 L 148.118 185.917 137.847 180.547 C 132.198 177.594,127.471 175.150,127.342 175.117 C 127.200 175.081,126.850 176.028,126.445 177.549 M162.641 194.780 C 164.366 202.175,170.326 207.971,178.162 209.875 C 181.457 210.676,191.692 209.965,191.692 208.936 C 191.692 208.802,162.705 193.516,162.452 193.516 C 162.394 193.516,162.479 194.085,162.641 194.780 M274.063 254.759 C 272.058 257.404,269.640 260.240,266.597 263.515 C 262.160 268.290,261.335 271.780,263.553 276.393 C 264.692 278.761,299.955 314.027,302.330 315.173 C 311.395 319.548,320.610 309.568,315.372 301.048 C 315.086 300.583,308.423 293.763,300.564 285.893 L 286.276 271.584 287.871 269.581 C 290.069 266.823,293.031 262.753,293.000 262.535 C 292.986 262.436,293.067 262.298,293.179 262.229 C 293.366 262.114,276.055 252.887,275.654 252.888 C 275.559 252.888,274.843 253.730,274.063 254.759 M232.320 286.413 C 230.173 287.021,226.160 288.457,226.200 288.604 C 226.250 288.787,244.241 298.251,244.354 298.154 C 244.569 297.970,244.580 294.865,244.369 293.952 C 243.122 288.571,237.384 284.981,232.320 286.413 " stroke="none" fill="#58a4fc" fill-rule="evenodd"></path><path id="path1" d="M84.380 214.562 C 84.459 214.690,84.560 215.181,84.605 215.654 C 84.650 216.128,84.737 216.788,84.799 217.123 C 84.861 217.457,85.098 218.734,85.325 219.959 C 96.913 282.358,159.734 323.488,222.753 309.935 C 237.044 306.862,242.210 304.313,243.984 299.459 C 244.468 298.134,245.567 298.882,234.990 293.339 L 225.908 288.578 224.453 288.985 C 175.257 302.734,124.414 276.067,107.972 227.890 L 107.497 226.500 99.797 222.460 C 86.525 215.498,84.232 214.323,84.380 214.562 M139.649 243.520 C 139.798 243.705,140.056 244.034,140.223 244.250 C 150.867 258.007,169.792 268.931,186.606 271.024 C 187.208 271.098,187.892 271.198,188.126 271.246 C 188.360 271.293,189.053 271.376,189.666 271.430 C 190.279 271.484,191.157 271.585,191.617 271.654 C 194.348 272.063,193.579 271.625,168.252 258.354 C 154.564 251.181,142.467 244.833,141.372 244.247 C 140.276 243.661,139.501 243.334,139.649 243.520 M195.897 271.879 C 196.259 271.924,196.852 271.924,197.214 271.879 C 197.576 271.834,197.280 271.797,196.555 271.797 C 195.831 271.797,195.534 271.834,195.897 271.879 " stroke="none" fill="#3b95fc" fill-rule="evenodd"></path><path id="path2" d="M192.705 82.616 C 173.273 83.421,153.654 89.562,136.981 100.059 C 133.635 102.166,133.162 102.514,133.675 102.497 C 134.089 102.484,153.818 112.797,154.050 113.148 C 154.152 113.304,154.199 113.292,154.202 113.109 C 154.203 112.963,154.296 112.900,154.407 112.969 C 154.519 113.037,154.610 112.992,154.610 112.867 C 154.610 112.743,154.701 112.697,154.813 112.766 C 154.924 112.835,155.015 112.789,155.015 112.665 C 155.015 112.540,155.106 112.494,155.218 112.563 C 155.329 112.632,155.420 112.587,155.420 112.462 C 155.420 112.337,155.512 112.292,155.623 112.361 C 155.735 112.430,155.826 112.374,155.826 112.238 C 155.826 112.101,155.882 112.046,155.951 112.115 C 156.020 112.184,156.684 111.934,157.427 111.560 C 172.447 103.996,192.977 100.868,211.246 103.360 C 251.766 108.887,284.756 140.663,291.697 180.851 C 291.986 182.523,292.274 184.164,292.337 184.498 C 292.401 184.833,292.448 185.251,292.442 185.427 C 292.436 185.604,292.539 185.753,292.670 185.759 C 292.801 185.766,297.421 188.145,302.938 191.046 L 312.969 196.322 313.036 195.172 C 313.123 193.679,312.738 187.654,312.341 184.296 C 305.207 123.920,253.637 80.091,192.705 82.616 M190.974 123.511 C 187.864 123.819,183.937 124.462,181.662 125.034 C 180.770 125.258,179.767 125.493,179.433 125.556 C 178.796 125.677,178.599 125.780,178.740 125.918 C 178.787 125.964,198.886 136.514,223.404 149.363 C 247.923 162.211,268.051 172.820,268.133 172.938 C 268.458 173.404,268.268 172.488,267.882 171.733 C 267.660 171.295,267.477 170.840,267.477 170.721 C 267.477 170.602,267.170 169.778,266.795 168.889 C 254.061 138.760,223.232 120.309,190.974 123.511 " stroke="none" fill="#94c4fc" fill-rule="evenodd"></path><path id="path3" d="M115.288 117.680 L 114.590 118.440 115.350 117.741 C 115.767 117.357,116.109 117.015,116.109 116.982 C 116.109 116.827,115.938 116.973,115.288 117.680 M112.689 120.440 C 112.451 120.694,112.310 120.956,112.376 121.022 C 112.442 121.088,112.313 121.241,112.088 121.361 C 109.132 122.943,97.935 139.832,93.874 148.835 C 92.410 152.080,92.199 152.562,92.199 152.647 C 92.199 152.696,92.070 153.044,91.913 153.420 C 91.756 153.796,91.642 154.158,91.660 154.224 C 91.678 154.291,91.587 154.473,91.458 154.629 C 90.515 155.778,90.342 155.653,99.760 160.595 C 108.637 165.253,108.798 165.329,108.838 164.894 C 108.888 164.348,108.926 164.221,109.158 163.816 C 109.290 163.585,109.682 162.673,110.029 161.789 C 113.891 151.964,120.819 141.047,128.353 132.916 C 129.030 132.184,129.972 131.119,130.445 130.548 L 131.306 129.510 129.432 128.505 C 127.152 127.282,115.604 121.231,114.160 120.502 L 113.122 119.979 112.689 120.440 M150.303 140.654 C 150.073 140.965,149.812 141.175,149.724 141.120 C 149.448 140.950,142.007 148.514,140.141 150.861 C 134.566 157.877,130.296 165.668,127.762 173.448 C 127.390 174.592,127.330 174.999,127.515 175.118 C 128.704 175.881,147.984 185.822,148.083 185.723 C 148.154 185.652,148.232 185.256,148.256 184.844 C 148.960 172.764,158.639 158.715,170.594 152.420 L 172.823 151.247 162.146 145.658 C 150.814 139.726,150.948 139.782,150.303 140.654 M187.335 161.507 C 175.571 162.627,165.281 171.793,162.540 183.593 C 162.188 185.107,161.848 189.245,161.993 190.248 C 162.068 190.764,162.146 191.520,162.169 191.928 C 162.191 192.337,162.271 192.734,162.347 192.809 C 162.423 192.885,162.447 193.052,162.401 193.181 C 162.352 193.318,168.412 196.605,177.055 201.129 L 191.793 208.844 192.695 208.574 C 193.190 208.425,193.657 208.205,193.731 208.086 C 193.804 207.966,193.900 207.889,193.944 207.915 C 194.564 208.286,199.550 205.034,202.287 202.473 C 206.824 198.229,213.311 200.066,214.390 205.899 C 214.909 208.709,213.940 210.628,210.409 213.784 C 207.939 215.992,207.728 216.171,207.664 216.116 C 207.628 216.086,207.381 216.269,207.116 216.523 C 206.834 216.793,206.749 216.972,206.913 216.953 C 207.067 216.935,211.610 219.235,217.008 222.064 L 226.822 227.207 227.443 226.510 C 227.785 226.127,228.372 225.467,228.747 225.044 C 236.180 216.666,237.663 203.807,232.169 195.382 C 224.508 183.636,207.381 182.767,195.643 193.529 C 191.168 197.631,186.098 197.122,183.741 192.333 C 181.602 187.989,183.923 184.209,191.996 178.887 C 197.668 175.148,208.119 171.570,211.501 172.209 C 213.181 172.527,211.393 171.450,202.665 166.886 C 197.354 164.110,192.964 161.777,192.908 161.702 C 192.852 161.628,192.442 161.561,191.996 161.553 C 191.550 161.545,190.729 161.493,190.172 161.436 C 189.615 161.380,188.338 161.412,187.335 161.507 M238.703 181.624 C 238.703 181.659,238.999 181.955,239.362 182.282 L 240.020 182.877 239.425 182.219 C 238.870 181.605,238.703 181.467,238.703 181.624 M244.580 189.064 C 244.580 189.179,244.716 189.325,244.882 189.389 C 245.049 189.453,245.135 189.587,245.073 189.687 C 245.011 189.787,245.073 189.868,245.209 189.868 C 245.346 189.868,245.406 189.920,245.342 189.984 C 245.279 190.047,245.624 190.938,246.109 191.963 C 250.801 201.866,250.504 214.150,245.316 224.823 C 244.047 227.434,241.185 231.972,240.085 233.119 C 239.510 233.718,239.369 234.043,239.683 234.043 C 239.777 234.043,243.703 236.059,248.408 238.523 C 253.113 240.987,256.995 242.970,257.034 242.930 C 263.634 236.149,271.294 217.143,272.049 205.674 C 272.104 204.838,272.169 203.978,272.194 203.763 C 272.239 203.371,271.632 203.042,247.467 190.368 C 245.879 189.535,244.580 188.948,244.580 189.064 M291.849 213.835 C 291.920 214.020,291.902 214.219,291.808 214.277 C 291.714 214.335,291.576 214.816,291.500 215.347 C 290.102 225.193,282.144 244.383,276.588 251.305 C 276.258 251.717,275.988 252.142,275.988 252.251 C 275.988 252.360,275.874 252.489,275.735 252.539 C 275.595 252.589,275.527 252.674,275.583 252.729 C 275.769 252.911,293.192 262.006,293.355 262.006 C 293.444 262.006,294.100 261.071,294.814 259.929 C 295.527 258.787,296.255 257.624,296.430 257.345 C 299.116 253.070,302.744 245.795,304.927 240.307 C 307.732 233.257,310.523 223.620,309.895 223.154 C 309.709 223.017,305.856 220.975,301.334 218.618 C 296.811 216.260,292.798 214.144,292.415 213.915 C 291.825 213.561,291.739 213.549,291.849 213.835 " stroke="none" fill="#77b5fc" fill-rule="evenodd"></path><path id="path4" d="M133.613 102.290 C 133.711 102.450,133.615 102.533,133.333 102.533 C 133.097 102.533,132.961 102.624,133.029 102.736 C 133.098 102.847,133.005 102.938,132.823 102.938 C 132.233 102.938,125.679 107.971,121.884 111.339 C 119.860 113.135,113.269 119.709,113.278 119.924 C 113.281 119.999,116.347 121.657,120.092 123.607 C 123.836 125.557,127.901 127.686,129.124 128.338 L 131.348 129.523 130.764 130.162 C 129.281 131.784,129.608 131.627,131.334 129.889 C 132.385 128.830,133.869 127.416,134.633 126.748 C 135.396 126.079,136.170 125.395,136.351 125.228 C 136.900 124.724,141.239 121.338,142.756 120.231 C 144.748 118.778,148.042 116.645,150.384 115.292 C 151.478 114.660,152.329 114.084,152.276 114.011 C 152.222 113.939,152.235 113.922,152.305 113.973 C 152.465 114.091,154.003 113.314,154.001 113.116 C 154.000 113.035,149.646 110.696,144.325 107.918 C 139.004 105.140,134.383 102.683,134.057 102.458 C 133.730 102.232,133.530 102.157,133.613 102.290 M178.267 125.791 C 178.072 125.832,177.913 125.942,177.913 126.035 C 177.913 126.129,177.753 126.181,177.558 126.151 C 175.508 125.838,163.091 131.487,157.379 135.332 C 154.139 137.512,153.954 137.640,153.670 137.891 C 153.543 138.003,153.196 138.272,152.898 138.487 C 152.600 138.703,152.112 139.090,151.812 139.348 C 151.512 139.606,151.198 139.817,151.114 139.817 C 151.031 139.818,150.963 139.914,150.963 140.032 C 150.963 140.150,151.055 140.190,151.168 140.120 C 151.281 140.050,156.164 142.507,162.018 145.579 C 167.873 148.651,172.756 151.165,172.870 151.165 C 172.983 151.165,173.574 150.937,174.183 150.659 C 174.792 150.380,175.384 150.152,175.497 150.152 C 175.611 150.152,175.978 150.010,176.314 149.837 C 179.941 147.961,190.374 147.000,196.049 148.019 C 206.395 149.877,204.303 163.460,193.921 161.831 C 193.308 161.735,192.852 161.699,192.908 161.750 C 192.964 161.802,197.386 164.127,202.736 166.917 L 212.462 171.990 215.299 172.104 C 219.562 172.274,223.903 173.082,227.029 174.287 C 229.267 175.150,233.391 177.330,234.785 178.388 C 235.248 178.739,235.880 179.210,236.189 179.433 C 237.951 180.704,240.738 183.503,242.102 185.369 C 242.294 185.633,242.641 186.073,242.871 186.348 C 243.102 186.622,243.556 187.286,243.879 187.823 L 244.467 188.798 258.353 196.081 L 272.239 203.364 272.425 200.517 C 272.760 195.384,272.067 187.278,270.812 181.662 C 270.086 178.409,269.079 174.873,268.879 174.873 C 268.784 174.873,268.758 174.737,268.822 174.569 C 268.887 174.402,268.833 174.265,268.703 174.265 C 268.573 174.265,268.519 174.181,268.583 174.077 C 268.647 173.973,268.605 173.830,268.490 173.759 C 268.375 173.688,268.334 173.544,268.399 173.439 C 268.624 173.075,267.722 172.593,223.404 149.365 C 198.886 136.513,178.779 125.935,178.723 125.858 C 178.668 125.780,178.463 125.750,178.267 125.791 M250.557 144.883 C 251.444 145.775,252.214 146.505,252.270 146.505 C 252.326 146.505,251.646 145.775,250.760 144.883 C 249.874 143.992,249.103 143.262,249.047 143.262 C 248.991 143.262,249.671 143.992,250.557 144.883 M292.580 185.771 C 292.567 185.851,292.572 186.001,292.591 186.103 C 292.611 186.205,292.657 186.798,292.695 187.420 C 292.732 188.042,292.875 190.193,293.013 192.199 C 293.399 197.813,293.086 205.241,292.212 211.209 L 291.861 213.603 292.587 214.013 C 294.455 215.067,310.140 223.229,310.204 223.181 C 310.288 223.116,311.098 219.119,311.540 216.592 C 312.444 211.415,313.148 202.993,313.033 198.716 L 312.969 196.318 304.863 192.070 C 300.405 189.733,295.823 187.328,294.681 186.723 C 293.539 186.119,292.593 185.691,292.580 185.771 " stroke="none" fill="#86bcfc" fill-rule="evenodd"></path></g></svg>